<?xml version="1.0" encoding="UTF-8"?>
<svg width="700pt" height="700pt" version="1.1" viewBox="0 0 700 700" xmlns="http://www.w3.org/2000/svg" xmlns:xlink="http://www.w3.org/1999/xlink">
 <defs>
  <symbol id="e" overflow="visible">
   <path d="m39.078-2.3281c-2.0117 1.043-4.1094 1.8281-6.2969 2.3594s-4.4648 0.79688-6.8281 0.79688c-7.0859 0-12.699-1.9766-16.844-5.9375-4.1367-3.957-6.2031-9.3281-6.2031-16.109 0-6.7891 2.0664-12.164 6.2031-16.125 4.1445-3.9688 9.7578-5.9531 16.844-5.9531 2.3633 0 4.6406 0.26562 6.8281 0.79688s4.2852 1.3242 6.2969 2.375v8.7969c-2.0312-1.3828-4.0391-2.3984-6.0156-3.0469-1.9688-0.64453-4.0469-0.96875-6.2344-0.96875-3.9062 0-6.9844 1.2578-9.2344 3.7656-2.2422 2.5-3.3594 5.9531-3.3594 10.359 0 4.3867 1.1172 7.8359 3.3594 10.344 2.25 2.5 5.3281 3.75 9.2344 3.75 2.1875 0 4.2656-0.32031 6.2344-0.96875 1.9766-0.64453 3.9844-1.6602 6.0156-3.0469z"/>
  </symbol>
  <symbol id="d" overflow="visible">
   <path d="m16.031-40.953v9.0625h10.516v7.2812h-10.516v13.531c0 1.4805 0.28906 2.4805 0.875 3 0.59375 0.52344 1.7656 0.78125 3.5156 0.78125h5.2344v7.2969h-8.7344c-4.0312 0-6.8867-0.83594-8.5625-2.5156-1.6797-1.6875-2.5156-4.5391-2.5156-8.5625v-13.531h-5.0781v-7.2812h5.0781v-9.0625z"/>
  </symbol>
  <symbol id="c" overflow="visible">
   <path d="m26.594-27.234v-17.078h10.266v44.312h-10.266v-4.6094c-1.3984 1.875-2.9453 3.25-4.6406 4.125-1.6875 0.875-3.6406 1.3125-5.8594 1.3125-3.9297 0-7.1562-1.5625-9.6875-4.6875-2.5234-3.125-3.7812-7.1445-3.7812-12.062 0-4.9141 1.2578-8.9375 3.7812-12.062 2.5312-3.125 5.7578-4.6875 9.6875-4.6875 2.1953 0 4.1445 0.44531 5.8438 1.3281 1.707 0.88672 3.2578 2.2578 4.6562 4.1094zm-6.7188 20.656c2.1875 0 3.8516-0.79688 5-2.3906 1.1445-1.5938 1.7188-3.9102 1.7188-6.9531 0-3.0391-0.57422-5.3594-1.7188-6.9531-1.1484-1.5938-2.8125-2.3906-5-2.3906-2.168 0-3.8242 0.79688-4.9688 2.3906-1.1484 1.5938-1.7188 3.9141-1.7188 6.9531 0 3.043 0.57031 5.3594 1.7188 6.9531 1.1445 1.5938 2.8008 2.3906 4.9688 2.3906z"/>
  </symbol>
  <symbol id="b" overflow="visible">
   <path d="m21.875-6.5781c2.1758 0 3.8359-0.79688 4.9844-2.3906 1.1562-1.5938 1.7344-3.9102 1.7344-6.9531 0-3.0391-0.57812-5.3594-1.7344-6.9531-1.1484-1.5938-2.8086-2.3906-4.9844-2.3906-2.1875 0-3.8672 0.80469-5.0312 2.4062-1.168 1.6055-1.75 3.918-1.75 6.9375 0 3.0234 0.58203 5.3359 1.75 6.9375 1.1641 1.6055 2.8438 2.4062 5.0312 2.4062zm-6.7812-20.656c1.4062-1.8516 2.9609-3.2227 4.6719-4.1094 1.707-0.88281 3.6719-1.3281 5.8906-1.3281 3.9375 0 7.1641 1.5625 9.6875 4.6875 2.5195 3.125 3.7812 7.1484 3.7812 12.062 0 4.918-1.2617 8.9375-3.7812 12.062-2.5234 3.125-5.75 4.6875-9.6875 4.6875-2.2188 0-4.1836-0.44531-5.8906-1.3281-1.7109-0.88281-3.2656-2.2539-4.6719-4.1094v4.6094h-10.188v-44.312h10.188z"/>
  </symbol>
  <symbol id="a" overflow="visible">
   <path d="m5.3594-42.516h29.594v8.2812h-18.641v7.9219h17.516v8.2812h-17.516v18.031h-10.953z"/>
  </symbol>
 </defs>
 <g>
  <path d="m463.4 213.85c-0.007813-11.754-4.3984-23.078-12.312-31.77-7.9102-8.6914-18.777-14.117-30.477-15.227s-23.395 2.1797-32.797 9.2305c-9.4062 7.0469-15.844 17.348-18.062 28.887-2.2188 11.543-0.058594 23.496 6.0625 33.527 6.1211 10.035 15.762 17.426 27.039 20.734 0.32813 7.7461-1.8398 15.395-6.1836 21.816-9.1016 11.668-29.051 13.184-50.285 15.168v-0.003906c-16.473 0.50781-32.734 3.8633-48.066 9.918v-84.465c14.262-4.5469 25.477-15.66 30.156-29.879 4.6758-14.219 2.25-29.82-6.5273-41.945-8.7734-12.125-22.836-19.305-37.805-19.305s-29.027 7.1797-37.805 19.305c-8.7734 12.125-11.203 27.727-6.5234 41.945s15.895 25.332 30.152 29.879v116.66c-14.352 4.4883-25.719 15.523-30.633 29.734-4.9141 14.215-2.7852 29.914 5.7344 42.309 8.5156 12.391 22.414 20.004 37.441 20.508 15.031 0.50391 29.406-6.1562 38.738-17.949 9.3281-11.793 12.508-27.316 8.5586-41.828-3.9492-14.508-14.551-26.281-28.57-31.723 2.0977-3.4258 5.1328-6.1797 8.75-7.9336 12.523-4.6367 25.73-7.1602 39.082-7.4648 24.852-2.332 53.082-5.0156 70-25.668 8.5234-11.438 12.961-25.406 12.602-39.668 9.3594-3.1719 17.492-9.1992 23.246-17.238 5.7578-8.0352 8.8477-17.676 8.8359-27.559zm-179.55-46.668h0.003906c3.8203 0 7.2656 2.3008 8.7305 5.832 1.4609 3.5312 0.65234 7.5977-2.0508 10.301s-6.7656 3.5117-10.297 2.0469c-3.5312-1.4609-5.8359-4.9062-5.8359-8.7305-0.16016-2.6055 0.76562-5.1602 2.5547-7.0625 1.7891-1.8984 4.2852-2.9766 6.8984-2.9688zm0 226.8h0.003906c-3.8242 0-7.2695-2.3047-8.7305-5.8359-1.4648-3.5312-0.65625-7.5938 2.0469-10.297 2.7031-2.7031 6.7656-3.5117 10.297-2.0508 3.5312 1.4648 5.8359 4.9102 5.8359 8.7344-0.30859 4.9883-4.4531 8.875-9.4492 8.8633zm132.3-189c3.8242 0 7.2695 2.3008 8.7305 5.832 1.4648 3.5312 0.65625 7.5977-2.0469 10.301-2.7031 2.6992-6.7656 3.5078-10.297 2.0469-3.5312-1.4609-5.8359-4.9102-5.8359-8.7305-0.16016-2.6055 0.76172-5.1641 2.5547-7.0625 1.7891-1.9023 4.2852-2.9766 6.8945-2.9727z"/>
  <use x="70" y="735" xlink:href="#e"/>
  <use x="220.503906" y="735" xlink:href="#d"/>
  <use x="287.953125" y="735" xlink:href="#c"/>
  <use x="350.015625" y="735" xlink:href="#b"/>
  <use x="450.105469" y="735" xlink:href="#a"/>
 </g>
</svg>
