<?xml version="1.0" encoding="UTF-8"?>
<svg width="700pt" height="700pt" version="1.1" viewBox="0 0 700 700" xmlns="http://www.w3.org/2000/svg">
 <path d="m542.5 87.5h-385c-28.945 0-52.5 23.555-52.5 52.5v280c0 28.945 23.555 52.5 52.5 52.5h385c28.945 0 52.5-23.555 52.5-52.5v-280c0-28.945-23.555-52.5-52.5-52.5zm-385 35h385c9.6602 0 17.5 7.8594 17.5 17.5v42.051l-201.69 108.61c-5.1992 2.8008-11.426 2.8008-16.59 0l-201.7-108.61v-42.051c0-9.6406 7.8398-17.5 17.5-17.5zm385 315h-385c-9.6602 0-17.5-7.8594-17.5-17.5v-198.2l185.11 99.699c7.7891 4.1836 16.344 6.2812 24.887 6.2812 8.5391 0 17.098-2.1016 24.887-6.2812l185.11-99.68v198.2c0 9.6406-7.8398 17.5-17.5 17.5z"/>
</svg>
