<?xml version="1.0" encoding="UTF-8"?>
<svg width="700pt" height="700pt" version="1.1" viewBox="0 0 700 700" xmlns="http://www.w3.org/2000/svg" xmlns:xlink="http://www.w3.org/1999/xlink">
 <defs>
  <symbol id="s" overflow="visible">
   <path d="m3.6562-0.21875c-0.1875 0.09375-0.38672 0.16797-0.59375 0.21875-0.19922 0.050781-0.40625 0.078125-0.625 0.078125-0.66797 0-1.1992-0.17969-1.5938-0.54688-0.38672-0.375-0.57812-0.87891-0.57812-1.5156 0-0.64453 0.19141-1.1484 0.57812-1.5156 0.39453-0.375 0.92578-0.5625 1.5938-0.5625 0.21875 0 0.42578 0.027344 0.625 0.078125 0.20703 0.054687 0.40625 0.125 0.59375 0.21875v0.82812c-0.1875-0.125-0.375-0.21875-0.5625-0.28125-0.17969-0.0625-0.37109-0.09375-0.57812-0.09375-0.36719 0-0.65625 0.12109-0.875 0.35938-0.21094 0.23047-0.3125 0.55469-0.3125 0.96875 0 0.40625 0.10156 0.73047 0.3125 0.96875 0.21875 0.23047 0.50781 0.34375 0.875 0.34375 0.20703 0 0.39844-0.023437 0.57812-0.078125 0.1875-0.0625 0.375-0.16016 0.5625-0.29688z"/>
  </symbol>
  <symbol id="b" overflow="visible">
   <path d="m2.6875-2.1719c-0.085938-0.039063-0.16797-0.070313-0.25-0.09375-0.085938-0.019531-0.16797-0.03125-0.25-0.03125-0.25 0-0.44531 0.085937-0.57812 0.25-0.125 0.15625-0.1875 0.38281-0.1875 0.67188v1.375h-0.96875v-2.9844h0.96875v0.48438c0.11328-0.19531 0.25-0.33594 0.40625-0.42188 0.16406-0.09375 0.35938-0.14062 0.57812-0.14062h0.10938c0.039063 0 0.09375 0.007812 0.15625 0.015625z"/>
  </symbol>
  <symbol id="a" overflow="visible">
   <path d="m3.4375-1.5v0.26562h-2.2344c0.03125 0.23047 0.11328 0.40234 0.25 0.51562 0.13281 0.10547 0.32812 0.15625 0.57812 0.15625 0.20703 0 0.41406-0.023438 0.625-0.078125 0.20703-0.0625 0.42188-0.15625 0.64062-0.28125v0.73438c-0.21875 0.09375-0.44531 0.16406-0.67188 0.20312-0.23047 0.039062-0.45312 0.0625-0.67188 0.0625-0.54297 0-0.96484-0.13281-1.2656-0.40625-0.30469-0.28125-0.45312-0.67188-0.45312-1.1719 0-0.47656 0.14453-0.85938 0.4375-1.1406 0.30078-0.28125 0.70703-0.42188 1.2188-0.42188 0.46875 0 0.84375 0.14062 1.125 0.42188s0.42188 0.66406 0.42188 1.1406zm-0.96875-0.32812c0-0.17578-0.058594-0.31641-0.17188-0.42188-0.10547-0.11328-0.24219-0.17188-0.40625-0.17188-0.1875 0-0.33984 0.054687-0.45312 0.15625-0.11719 0.10547-0.1875 0.25-0.21875 0.4375z"/>
  </symbol>
  <symbol id="i" overflow="visible">
   <path d="m1.7969-1.3438c-0.19922 0-0.35156 0.039062-0.45312 0.10938-0.09375 0.0625-0.14062 0.16406-0.14062 0.29688 0 0.11719 0.035156 0.21094 0.10938 0.28125 0.082031 0.0625 0.19531 0.09375 0.34375 0.09375 0.17578 0 0.32812-0.0625 0.45312-0.1875s0.1875-0.28516 0.1875-0.48438v-0.10938zm1.4688-0.35938v1.7031h-0.96875v-0.4375c-0.125 0.17969-0.27344 0.30859-0.4375 0.39062-0.15625 0.082031-0.35156 0.125-0.57812 0.125-0.3125 0-0.57031-0.085938-0.76562-0.26562-0.1875-0.1875-0.28125-0.42188-0.28125-0.70312 0-0.35156 0.11719-0.61328 0.35938-0.78125 0.23828-0.16406 0.61719-0.25 1.1406-0.25h0.5625v-0.0625c0-0.15625-0.0625-0.26562-0.1875-0.32812-0.11719-0.070312-0.29688-0.10938-0.54688-0.10938-0.21094 0-0.40234 0.023437-0.57812 0.0625-0.17969 0.042969-0.33984 0.10156-0.48438 0.17188v-0.71875c0.19531-0.050781 0.39844-0.085938 0.60938-0.10938 0.20703-0.03125 0.41406-0.046875 0.625-0.046875 0.53906 0 0.92969 0.10938 1.1719 0.32812 0.23828 0.21094 0.35938 0.55469 0.35938 1.0312z"/>
  </symbol>
  <symbol id="c" overflow="visible">
   <path d="m1.5-3.8438v0.85938h0.98438v0.67188h-0.98438v1.2812c0 0.13672 0.023438 0.23047 0.078125 0.28125 0.0625 0.042969 0.17578 0.0625 0.34375 0.0625h0.48438v0.6875h-0.8125c-0.38672 0-0.65625-0.078125-0.8125-0.23438s-0.23438-0.42188-0.23438-0.79688v-1.2812h-0.46875v-0.67188h0.46875v-0.85938z"/>
  </symbol>
  <symbol id="h" overflow="visible">
   <path d="m2.5-2.5469v-1.6094h0.95312v4.1562h-0.95312v-0.4375c-0.13672 0.17969-0.28125 0.30859-0.4375 0.39062-0.15625 0.082031-0.33984 0.125-0.54688 0.125-0.375 0-0.68359-0.14453-0.92188-0.4375-0.23047-0.28906-0.34375-0.67188-0.34375-1.1406 0-0.45703 0.11328-0.83203 0.34375-1.125 0.23828-0.28906 0.54688-0.4375 0.92188-0.4375 0.19531 0 0.375 0.042969 0.53125 0.125 0.16406 0.085938 0.31641 0.21484 0.45312 0.39062zm-0.64062 1.9375c0.20703 0 0.36328-0.070313 0.46875-0.21875 0.11328-0.15625 0.17188-0.37891 0.17188-0.67188 0-0.28125-0.058594-0.49219-0.17188-0.64062-0.10547-0.15625-0.26172-0.23438-0.46875-0.23438-0.19922 0-0.35547 0.078125-0.46875 0.23438-0.10547 0.14844-0.15625 0.35938-0.15625 0.64062 0 0.29297 0.050781 0.51562 0.15625 0.67188 0.11328 0.14844 0.26953 0.21875 0.46875 0.21875z"/>
  </symbol>
  <symbol id="g" overflow="visible">
   <path d="m2.0469-0.60938c0.20703 0 0.36328-0.070313 0.46875-0.21875 0.11328-0.15625 0.17188-0.37891 0.17188-0.67188 0-0.28125-0.058594-0.49219-0.17188-0.64062-0.10547-0.15625-0.26172-0.23438-0.46875-0.23438-0.19922 0-0.35547 0.078125-0.46875 0.23438-0.10547 0.14844-0.15625 0.35938-0.15625 0.64062 0 0.29297 0.050781 0.51562 0.15625 0.67188 0.11328 0.14844 0.26953 0.21875 0.46875 0.21875zm-0.625-1.9375c0.125-0.17578 0.26562-0.30469 0.42188-0.39062 0.16406-0.082031 0.35156-0.125 0.5625-0.125 0.36328 0 0.66406 0.14844 0.90625 0.4375 0.23828 0.29297 0.35938 0.66797 0.35938 1.125 0 0.46875-0.12109 0.85156-0.35938 1.1406-0.24219 0.29297-0.54297 0.4375-0.90625 0.4375-0.21094 0-0.39844-0.042969-0.5625-0.125-0.15625-0.082031-0.29688-0.21094-0.42188-0.39062v0.4375h-0.96875v-4.1562h0.96875z"/>
  </symbol>
  <symbol id="f" overflow="visible">
   <path d="m0.0625-2.9844h0.95312l0.8125 2.0156 0.6875-2.0156h0.95312l-1.2656 3.2656c-0.125 0.33203-0.27344 0.56641-0.4375 0.70312-0.16797 0.13281-0.39062 0.20312-0.67188 0.20312h-0.54688v-0.64062h0.29688c0.16406 0 0.28516-0.027344 0.35938-0.078125 0.070313-0.054688 0.12891-0.14062 0.17188-0.26562l0.03125-0.09375z"/>
  </symbol>
  <symbol id="e" overflow="visible">
   <path d="m0.45312-2.9844h0.96875v2.9844h-0.96875zm0-1.1719h0.96875v0.78125h-0.96875z"/>
  </symbol>
  <symbol id="k" overflow="visible">
   <path d="m3.4688-1.8281v1.8281h-0.96875v-1.3906c0-0.25781-0.007812-0.4375-0.015625-0.53125-0.011719-0.10156-0.03125-0.17578-0.0625-0.21875-0.03125-0.0625-0.085937-0.10938-0.15625-0.14062-0.0625-0.039062-0.13281-0.0625-0.20312-0.0625-0.21094 0-0.37109 0.078125-0.48438 0.23438-0.10547 0.15625-0.15625 0.37109-0.15625 0.64062v1.4688h-0.96875v-2.9844h0.96875v0.4375c0.13281-0.17578 0.28516-0.30469 0.45312-0.39062 0.16406-0.082031 0.34375-0.125 0.53125-0.125 0.34375 0 0.60156 0.10938 0.78125 0.32812 0.1875 0.21094 0.28125 0.51172 0.28125 0.90625z"/>
  </symbol>
  <symbol id="j" overflow="visible">
   <path d="m2.4219-4.1562v0.625h-0.51562c-0.13672 0-0.23438 0.027344-0.29688 0.078125-0.054687 0.054687-0.078125 0.13672-0.078125 0.25v0.21875h0.82812v0.67188h-0.82812v2.3125h-0.95312v-2.3125h-0.46875v-0.67188h0.46875v-0.21875c0-0.32031 0.085937-0.5625 0.26562-0.71875 0.1875-0.15625 0.47266-0.23438 0.85938-0.23438z"/>
  </symbol>
  <symbol id="d" overflow="visible">
   <path d="m1.875-2.375c-0.21094 0-0.37109 0.078125-0.48438 0.23438-0.10547 0.14844-0.15625 0.35938-0.15625 0.64062 0 0.29297 0.050781 0.51562 0.15625 0.67188 0.11328 0.14844 0.27344 0.21875 0.48438 0.21875 0.20703 0 0.36719-0.070313 0.48438-0.21875 0.11328-0.15625 0.17188-0.37891 0.17188-0.67188 0-0.28125-0.058594-0.49219-0.17188-0.64062-0.11719-0.15625-0.27734-0.23438-0.48438-0.23438zm0-0.6875c0.51953 0 0.92188 0.14062 1.2031 0.42188 0.28906 0.27344 0.4375 0.65234 0.4375 1.1406 0 0.5-0.14844 0.89062-0.4375 1.1719-0.28125 0.27344-0.68359 0.40625-1.2031 0.40625-0.51172 0-0.91406-0.13281-1.2031-0.40625-0.29297-0.28125-0.4375-0.67188-0.4375-1.1719 0-0.48828 0.14453-0.86719 0.4375-1.1406 0.28906-0.28125 0.69141-0.42188 1.2031-0.42188z"/>
  </symbol>
  <symbol id="r" overflow="visible">
   <path d="m3.2344-2.5c0.11328-0.17578 0.25391-0.3125 0.42188-0.40625 0.16406-0.10156 0.35156-0.15625 0.5625-0.15625 0.33203 0 0.58594 0.10938 0.76562 0.32812 0.1875 0.21094 0.28125 0.51172 0.28125 0.90625v1.8281h-0.96875v-1.5625c0.007813-0.019531 0.015625-0.039062 0.015625-0.0625v-0.10938c0-0.21875-0.03125-0.375-0.09375-0.46875s-0.16406-0.14062-0.29688-0.14062c-0.1875 0-0.33594 0.078125-0.4375 0.23438-0.09375 0.14844-0.14062 0.35938-0.14062 0.64062v1.4688h-0.96875v-1.5625c0-0.33203-0.03125-0.54688-0.09375-0.64062-0.054688-0.09375-0.15234-0.14062-0.29688-0.14062-0.17969 0-0.32031 0.078125-0.42188 0.23438-0.09375 0.14844-0.14062 0.35938-0.14062 0.64062v1.4688h-0.96875v-2.9844h0.96875v0.4375c0.11328-0.17578 0.24219-0.30469 0.39062-0.39062 0.15625-0.082031 0.32812-0.125 0.51562-0.125 0.20703 0 0.39062 0.054688 0.54688 0.15625 0.15625 0.09375 0.27344 0.23047 0.35938 0.40625z"/>
  </symbol>
  <symbol id="q" overflow="visible">
   <path d="m3.4688-1.8281v1.8281h-0.96875v-1.3906c0-0.25781-0.007812-0.4375-0.015625-0.53125-0.011719-0.10156-0.03125-0.17578-0.0625-0.21875-0.03125-0.0625-0.085937-0.10938-0.15625-0.14062-0.0625-0.039062-0.13281-0.0625-0.20312-0.0625-0.21094 0-0.37109 0.078125-0.48438 0.23438-0.10547 0.15625-0.15625 0.37109-0.15625 0.64062v1.4688h-0.96875v-4.1562h0.96875v1.6094c0.13281-0.17578 0.28516-0.30469 0.45312-0.39062 0.16406-0.082031 0.34375-0.125 0.53125-0.125 0.34375 0 0.60156 0.10938 0.78125 0.32812 0.1875 0.21094 0.28125 0.51172 0.28125 0.90625z"/>
  </symbol>
  <symbol id="p" overflow="visible">
   <path d="m0.5-3.9844h1.1562l1.4375 2.7344v-2.7344h0.98438v3.9844h-1.1562l-1.4375-2.7344v2.7344h-0.98438z"/>
  </symbol>
  <symbol id="o" overflow="visible">
   <path d="m0.42188-1.1719v-1.8125h0.96875v0.29688 0.60938 0.48438c0 0.24219 0.003906 0.41797 0.015625 0.53125 0.007812 0.10547 0.03125 0.17969 0.0625 0.21875 0.039062 0.0625 0.09375 0.11719 0.15625 0.15625 0.0625 0.03125 0.13281 0.046875 0.21875 0.046875 0.19531 0 0.35156-0.078125 0.46875-0.23438 0.11328-0.15625 0.17188-0.36719 0.17188-0.64062v-1.4688h0.95312v2.9844h-0.95312v-0.4375c-0.14844 0.17969-0.30469 0.30859-0.46875 0.39062-0.15625 0.082031-0.33594 0.125-0.53125 0.125-0.34375 0-0.60938-0.10156-0.79688-0.3125-0.17969-0.21875-0.26562-0.53125-0.26562-0.9375z"/>
  </symbol>
  <symbol id="n" overflow="visible">
   <path d="m0.5-3.9844h1.7031c0.50781 0 0.89844 0.11719 1.1719 0.34375 0.26953 0.21875 0.40625 0.53906 0.40625 0.95312 0 0.41797-0.13672 0.74219-0.40625 0.96875-0.27344 0.21875-0.66406 0.32812-1.1719 0.32812h-0.67188v1.3906h-1.0312zm1.0312 0.75v1.1094h0.5625c0.19531 0 0.34766-0.046875 0.45312-0.14062 0.11328-0.10156 0.17188-0.24219 0.17188-0.42188 0-0.17578-0.058594-0.3125-0.17188-0.40625-0.10547-0.09375-0.25781-0.14062-0.45312-0.14062z"/>
  </symbol>
  <symbol id="m" overflow="visible">
   <path d="m0.45312-2.9844h0.96875v2.9375c0 0.39453-0.10156 0.69531-0.29688 0.90625-0.1875 0.21875-0.46484 0.32812-0.82812 0.32812h-0.48438v-0.64062h0.17188c0.17578 0 0.29688-0.042969 0.35938-0.125 0.070312-0.074219 0.10938-0.23047 0.10938-0.46875zm0-1.1719h0.96875v0.78125h-0.96875z"/>
  </symbol>
  <symbol id="l" overflow="visible">
   <path d="m2.875-2.8906v0.76562c-0.125-0.082031-0.25781-0.14453-0.39062-0.1875-0.13672-0.039062-0.27344-0.0625-0.40625-0.0625-0.27344 0-0.48047 0.078125-0.625 0.23438-0.14844 0.15625-0.21875 0.37109-0.21875 0.64062 0 0.28125 0.070313 0.5 0.21875 0.65625 0.14453 0.15625 0.35156 0.23438 0.625 0.23438 0.14453 0 0.28516-0.019531 0.42188-0.0625 0.13281-0.039063 0.25781-0.10938 0.375-0.20312v0.78125c-0.14844 0.0625-0.29688 0.10156-0.45312 0.125-0.15625 0.03125-0.3125 0.046875-0.46875 0.046875-0.54297 0-0.96484-0.13281-1.2656-0.40625-0.30469-0.28125-0.45312-0.67188-0.45312-1.1719 0-0.48828 0.14844-0.86719 0.45312-1.1406 0.30078-0.28125 0.72266-0.42188 1.2656-0.42188 0.15625 0 0.3125 0.015625 0.46875 0.046875 0.15625 0.023437 0.30469 0.0625 0.45312 0.125z"/>
  </symbol>
 </defs>
 <g>
  <path d="m603.98 306.75c0-1.7031-0.625-3.2383-1.7617-4.3125-1.0742-1.082-2.6055-1.7617-4.2578-1.7617-1.5859 0-3.1211 0.67969-4.2031 1.7031-1.1328 1.1367-1.8125 2.6719-1.8125 4.375 0 1.6484 0.67969 3.1758 1.8125 4.3125 1.082 1.0195 2.6172 1.7578 4.2031 1.7578 1.6523 0 3.1836-0.73828 4.2578-1.7578 1.1367-1.1406 1.7617-2.6719 1.7617-4.3164zm4.3125-10.219c2.5547 2.668 4.2031 6.2422 4.2031 10.219s-1.6484 7.6602-4.2578 10.328l-0.17188 0.11719c-2.6094 2.5547-6.1289 4.1406-10.105 4.1406-3.9688 0-7.5508-1.6445-10.156-4.2578l-0.17578-0.16797c-2.5508-2.6094-4.0781-6.2461-4.0781-10.16 0-4.0312 1.6406-7.668 4.1953-10.332l0.17188-0.17188c2.6133-2.5508 6.1289-4.1406 10.047-4.1406 4.0352 0 7.6055 1.6445 10.223 4.3125z"/>
  <path d="m575.14 58.777c2.0391 1.1914 2.7266 3.7461 1.5859 5.793-0.39453 0.68359-0.90234 1.1914-1.5859 1.5898l-15.383 8.9688c-2.043 1.1914-4.5938 0.44922-5.793-1.5898-1.1289-1.9922-0.45312-4.6016 1.5898-5.793l9.0859-5.2773-9.0859-5.3398c-2.043-1.1328-2.7227-3.8047-1.5898-5.8438 1.1992-2.0469 3.75-2.6719 5.793-1.4727z"/>
  <path d="m489.37 507.54c2.3242 0 4.1953 1.875 4.1953 4.2578 0 2.3242-1.875 4.2578-4.1953 4.2578h-22.031c-2.3281 0-4.2578-1.9375-4.2578-4.2578 0-2.3828 1.9297-4.2578 4.2578-4.2578z"/>
  <path d="m474.66 518.95c2.2656 0 4.2031 1.9297 4.2031 4.3125 0 2.3281-1.9375 4.2578-4.2031 4.2578h-47.062c-2.3828 0-4.2578-1.9297-4.2578-4.2578 0-2.3828 1.875-4.3125 4.2578-4.3125z"/>
  <path d="m354.43 219.09c-9.6523 4.9961-17.887 12.488-24.582 22.535-0.73828 1.2539-2.1016 2.0469-3.5781 2.0469-2.3867 0-4.2578-1.9297-4.2578-4.3125v-23.562h-21.121v188.19h24.523v-103.09c0-13.055 1.3047-24.012 3.9766-32.98 2.1016-6.9297 4.9961-12.719 8.6836-17.32 1.25-1.5312 2.6094-2.8945 4.0312-4.1406 5.5625-4.8828 11.582-8.5156 18.055-10.953 6.4688-2.4453 13.566-3.6914 21.004-3.6914 4.7148 0 9.1367 0.56641 13.34 1.7031 4.2031 1.082 8.0625 2.7266 11.645 4.8281l0.27734 0.16797c3.5781 2.2734 6.7031 4.8828 9.2578 7.8945 2.4922 3.0039 4.5391 6.4141 5.9609 10.16l0.054688 0.10938c1.3633 3.6328 2.5 8.2891 3.1211 13.684 0.74219 5.332 1.082 11.41 1.082 18.395v115.24h24.52l-0.003906-116.55c0-7.6055-0.16797-14.02-0.39453-19.188-0.33984-5.2773-0.79297-9.4219-1.3633-12.434-0.84766-4.4258-2.1562-8.5703-3.7422-12.43-1.5977-3.8047-3.5273-7.3242-5.7383-10.562-2.1562-3.0039-4.9961-5.8438-8.3438-8.3438-3.3477-2.6133-7.3867-4.8242-12.035-6.8125-4.5977-2.0391-9.4805-3.5781-14.648-4.5391-5.0508-1.082-10.391-1.5898-16.008-1.5898-12.828-0.003906-24.066 2.5-33.715 7.5469zm-23.957 8.0078c5.9023-6.5312 12.602-11.691 20.098-15.555 10.895-5.7305 23.504-8.5703 37.586-8.5703 6.0703 0 11.973 0.625 17.652 1.7578 5.6211 1.082 11.07 2.8398 16.293 5.0547 5.2227 2.2109 9.875 4.8242 13.793 7.832 4.0859 3.0117 7.4336 6.4688 10.16 10.332 2.6133 3.6875 4.8242 7.832 6.6406 12.203 1.8164 4.3125 3.2383 9.0273 4.2578 13.965v0.0625c0.625 3.2891 1.1367 7.8867 1.418 13.621 0.34375 5.6211 0.56641 12.145 0.56641 19.641v120.8c0 2.3281-1.9297 4.2578-4.2578 4.2578h-33.035c-2.3281 0-4.2578-1.9297-4.2578-4.2578v-119.5c0-6.7578-0.22656-12.492-0.91016-17.32-0.57031-4.707-1.418-8.625-2.668-11.637l-0.054688-0.22656c-1.082-2.8398-2.5547-5.3906-4.5469-7.6602-1.9297-2.2734-4.3672-4.375-7.207-6.1328l-0.11328-0.054688c-2.9531-1.7617-6.0742-3.1211-9.4805-4.0312-3.4688-0.85547-7.1562-1.3086-11.242-1.3086-6.4766 0-12.492 1.082-18.051 3.1211-5.5664 2.1016-10.734 5.2227-15.332 9.3672h-0.11328c-4.4805 3.9766-7.8867 9.7617-10.16 17.484-2.4414 8.1719-3.6914 18.395-3.6914 30.539v107.35c0 2.3281-1.8711 4.2578-4.2578 4.2578l-32.922 0.003906c-2.3281 0-4.2031-1.9297-4.2031-4.2578v-196.71c0-2.3828 1.875-4.3125 4.2031-4.3125h29.637c2.3242 0 4.1992 1.9297 4.1992 4.3125z"/>
  <path d="m264.5 403.99v-188.19h-24.582v188.19zm8.5156-192.45v196.71c0 2.3281-1.875 4.2578-4.2578 4.2578h-33.039c-2.3281 0-4.2578-1.9297-4.2578-4.2578v-196.71c0-2.3828 1.9297-4.3125 4.2578-4.3125h33.039c2.3828 0 4.2578 1.9297 4.2578 4.3125z"/>
  <path d="m271.43 172.83c0-5.9648-2.3281-11.242-6.1328-15.047-3.8047-3.9219-9.082-6.2422-14.93-6.2422-5.7344 0-10.898 2.2656-14.707 6.0156l-0.16797 0.22656c-3.8047 3.8047-6.1328 9.082-6.1328 15.047 0 5.8438 2.3281 11.125 6.1328 14.984 3.8047 3.8047 9.082 6.1875 14.875 6.1875 5.8477 0 11.125-2.3828 14.93-6.1875 3.8047-3.8594 6.1328-9.1953 6.1328-14.984zm-0.17188-21.121c5.3398 5.3945 8.6289 12.836 8.6289 21.121 0 8.1719-3.2891 15.668-8.6289 21.062-5.2773 5.332-12.715 8.7422-20.891 8.7422-8.1758 0-15.496-3.4102-20.832-8.7422-5.3398-5.3945-8.6289-12.891-8.6289-21.062 0-8.2891 3.2891-15.727 8.5703-21.121l0.22656-0.22656c5.3945-5.2773 12.66-8.5156 20.664-8.5156 8.1758 0 15.5 3.293 20.891 8.7422z"/>
  <path d="m180.32 507.77c1.9336-2.0469 4.7695-3.293 7.8906-3.293 3.0664 0 5.9023 1.2461 7.8906 3.293 2.043 2.0391 3.293 4.8789 3.293 8 0 3.1289-1.25 5.9648-3.293 8.0039-1.9883 2.0469-4.8242 3.3516-7.8906 3.3516-3.1211 0-5.9609-1.3008-7.8906-3.3516-2.043-2.0391-3.3477-4.8789-3.3477-8.0039-0.003906-3.1211 1.3047-5.9609 3.3477-8zm5.9609 9.9883c0.51172 0.45313 1.1328 0.79297 1.9297 0.79297 0.73828 0 1.418-0.33984 1.9883-0.79297 0.45313-0.51172 0.73828-1.1914 0.73828-1.9922 0-0.73438-0.28125-1.4727-0.73828-1.9844-0.56641-0.45312-1.25-0.79297-1.9883-0.79297-0.79688 0-1.418 0.33984-1.9297 0.79297-0.50781 0.50781-0.79688 1.2461-0.79688 1.9844 0 0.80078 0.28906 1.4844 0.79688 1.9922z"/>
  <path d="m146.59 46.234c0.68359 2.2734-0.67969 4.6016-2.8945 5.2812l-7.6055 1.9844c-2.2148 0.625-4.4844-0.73828-5.168-3.0117-0.56641-2.2656 0.79688-4.5977 3.0078-5.2227l7.5508-2.0391c2.2734-0.57031 4.543 0.73828 5.1094 3.0078z"/>
  <path d="m136.15 64.629c0.625 2.3281-0.79688 4.6562-3.0078 5.2227-2.2734 0.625-4.543-0.73828-5.168-2.9492l-1.9883-7.4961c-0.625-2.2734 0.73828-4.5977 3.0117-5.2227 2.2695-0.56641 4.5391 0.73828 5.1094 3.0664z"/>
  <path d="m180.09 472.34h319.49c6.4766 0 12.551-1.3633 18.113-3.6367 5.8477-2.4961 11.125-6.0156 15.496-10.445 4.4336-4.4219 7.9492-9.707 10.387-15.609 2.2734-5.6172 3.6367-11.809 3.6367-18.336v-293.16c0-6.4688-1.3633-12.711-3.6367-18.391-2.4375-5.8477-6.0156-11.125-10.387-15.555-4.3711-4.375-9.5938-8.0039-15.434-10.445-5.6211-2.3281-11.699-3.6367-18.172-3.6367h-319.5c-6.418 0-12.547 1.3086-18.168 3.6367-5.7344 2.4375-11.07 6.0156-15.441 10.445-4.3711 4.4297-7.8867 9.7617-10.332 15.609-2.2695 5.6211-3.5781 11.863-3.5781 18.332v293.16c0 6.5234 1.3047 12.719 3.5781 18.336 2.4414 5.8477 5.9609 11.188 10.332 15.609 4.3711 4.4297 9.707 7.9492 15.496 10.445 5.5664 2.2773 11.695 3.6406 18.113 3.6406zm319.49 8.5156h-319.49c-7.4961 0-14.762-1.5352-21.348-4.3125-6.8672-2.8398-13.055-7.043-18.223-12.262-5.168-5.168-9.2539-11.469-12.148-18.395-2.7227-6.6406-4.2578-13.965-4.2578-21.57v-293.16c0-7.6055 1.5312-14.93 4.2578-21.625 2.8398-6.9258 6.9844-13.113 12.148-18.34 5.168-5.2227 11.352-9.3633 18.223-12.258 6.5859-2.7812 13.852-4.3203 21.348-4.3203h319.49c7.6055 0 14.762 1.5352 21.406 4.3203 6.8672 2.8945 13 7.0352 18.168 12.258 5.168 5.2266 9.4258 11.414 12.207 18.34 2.7773 6.6953 4.3125 14.02 4.3125 21.625v293.16c0 7.6602-1.5352 14.93-4.3125 21.625-2.8984 6.8672-7.0391 13.172-12.207 18.34-5.168 5.2227-11.297 9.4219-18.168 12.262-6.6406 2.7773-13.91 4.3125-21.406 4.3125z"/>
  <path d="m130.36 42.773c0.56641 2.2656-0.79688 4.6523-3.0078 5.2227-2.3281 0.62109-4.5977-0.79688-5.168-3.0117l-1.9297-7.1523c-0.57031-2.3281 0.73828-4.6016 3.0078-5.2227 2.2148-0.57031 4.5977 0.73828 5.168 3.0664z"/>
  <path d="m125.59 51.969c0.625 2.2109-0.74219 4.5977-2.9531 5.2227l-7.7227 2.0391c-2.2109 0.625-4.5977-0.73828-5.1641-2.9492-0.57031-2.3281 0.73828-4.6562 3.0078-5.2227l7.6641-2.1562c2.2695-0.57031 4.5391 0.73828 5.168 3.0664z"/>
  <path d="m114.07 293.8-8.1172 2.4414-2.2148-7.6641v-0.054687l8.0625-2.4453z"/>
  <path d="m108.22 303.91-8.0039 2.4414-2.3281-7.6641v-0.0625l8.0625-2.3789z"/>
  <path d="m103.73 288.53v0.054687l-8.0586 2.4414-2.2734-7.7188 8.0625-2.3828z"/>
  <path d="m95.617 291.02 2.2695 7.6016v0.0625l-8.0625 2.4375-2.3242-7.7188 8.1172-2.4414z"/>
  <use x="70" y="576.40625" xlink:href="#s"/>
  <use x="74.011719" y="576.40625" xlink:href="#b"/>
  <use x="76.710938" y="576.40625" xlink:href="#a"/>
  <use x="80.417969" y="576.40625" xlink:href="#i"/>
  <use x="84.109375" y="576.40625" xlink:href="#c"/>
  <use x="86.722656" y="576.40625" xlink:href="#a"/>
  <use x="90.433594" y="576.40625" xlink:href="#h"/>
  <use x="96.25" y="576.40625" xlink:href="#g"/>
  <use x="100.167969" y="576.40625" xlink:href="#f"/>
  <use x="105.636719" y="576.40625" xlink:href="#e"/>
  <use x="107.507812" y="576.40625" xlink:href="#g"/>
  <use x="111.425781" y="576.40625" xlink:href="#b"/>
  <use x="114.121094" y="576.40625" xlink:href="#i"/>
  <use x="117.8125" y="576.40625" xlink:href="#k"/>
  <use x="121.703125" y="576.40625" xlink:href="#h"/>
  <use x="125.621094" y="576.40625" xlink:href="#e"/>
  <use x="127.492188" y="576.40625" xlink:href="#j"/>
  <use x="129.875" y="576.40625" xlink:href="#f"/>
  <use x="70" y="581.875" xlink:href="#j"/>
  <use x="72.378906" y="581.875" xlink:href="#b"/>
  <use x="75.078125" y="581.875" xlink:href="#d"/>
  <use x="78.832031" y="581.875" xlink:href="#r"/>
  <use x="86.4375" y="581.875" xlink:href="#c"/>
  <use x="89.050781" y="581.875" xlink:href="#q"/>
  <use x="92.941406" y="581.875" xlink:href="#a"/>
  <use x="98.554688" y="581.875" xlink:href="#p"/>
  <use x="103.132812" y="581.875" xlink:href="#d"/>
  <use x="106.890625" y="581.875" xlink:href="#o"/>
  <use x="110.785156" y="581.875" xlink:href="#k"/>
  <use x="116.582031" y="581.875" xlink:href="#n"/>
  <use x="120.589844" y="581.875" xlink:href="#b"/>
  <use x="123.285156" y="581.875" xlink:href="#d"/>
  <use x="127.042969" y="581.875" xlink:href="#m"/>
  <use x="128.917969" y="581.875" xlink:href="#a"/>
  <use x="132.625" y="581.875" xlink:href="#l"/>
  <use x="135.867188" y="581.875" xlink:href="#c"/>
 </g>
</svg>
